<svg width="143" height="33" viewBox="0 0 143 33" fill="none" xmlns="http://www.w3.org/2000/svg">
<path fill-rule="evenodd" clip-rule="evenodd" d="M120.924 20.5574H123.177C124.415 20.5574 125.87 19.5296 126.409 18.2738L127.262 16.2883H136.203L137.057 18.2738C137.596 19.5296 139.05 20.5574 140.289 20.5574H142.541L133.93 0.513913H129.536L120.924 20.5574ZM105.364 0.513913H108.151C109.281 0.513913 110.752 1.45161 111.42 2.59816L114.495 7.88115L117.571 2.59816C118.238 1.45161 119.71 0.513913 120.84 0.513913H123.627L116.512 12.7343V20.5574H112.478V12.7343L105.364 0.513913ZM95.4758 0C98.3375 0 100.931 1.12662 102.822 2.95348L100.604 6.45294C99.5141 4.9554 97.8068 3.98997 95.1947 3.98997C92.5825 3.98997 89.5089 6.80566 89.5089 10.2783C89.5089 13.7517 92.18 16.5674 95.4758 16.5674C96.8549 16.5674 98.1247 16.0734 99.1347 15.2458V12.5324C99.1347 10.4134 100.845 8.67932 102.934 8.67932H103.695V16.6471C101.778 19.0286 98.8083 20.5574 95.4758 20.5574C89.6918 20.5574 85.0032 15.9556 85.0032 10.2783C85.0032 4.60181 89.6918 0 95.4758 0ZM71.8842 0C77.6674 0 82.3568 4.60181 82.3568 10.2783C82.3568 15.9556 77.6674 20.5574 71.8842 20.5574C66.1002 20.5574 61.4116 15.9556 61.4116 10.2783C61.4116 4.60181 66.1002 0 71.8842 0ZM71.8842 3.98997C75.1792 3.98997 77.8503 6.80566 77.8503 10.2783C77.8503 13.7517 75.1792 16.5674 71.8842 16.5674C68.5885 16.5674 65.9174 13.7517 65.9174 10.2783C65.9174 6.80566 68.5885 3.98997 71.8842 3.98997ZM43 0.513913H45.7873C46.9178 0.513913 48.3884 1.45161 49.0558 2.59816L52.1319 7.88115L55.2081 2.59816C55.8754 1.45161 57.346 0.513913 58.4765 0.513913H61.263L54.1485 12.7343V20.5574H50.1153V12.7343L43 0.513913ZM129.029 12.177L131.733 5.8827L134.437 12.177H129.029Z" fill="#EC3337"/>
<path fill-rule="evenodd" clip-rule="evenodd" d="M69.4934 31.2426C69.0657 31.4723 68.6381 31.556 68.1789 31.556C66.7801 31.556 65.8098 30.5833 65.8098 29.2127C65.8098 27.8216 66.7801 26.8695 68.1994 26.8695C68.9405 26.8695 69.5564 27.1316 70.088 27.6961L71.1741 26.6918C70.4645 25.8652 69.3997 25.4263 68.1159 25.4263C65.7885 25.4263 64.0984 27.0061 64.0984 29.2127C64.0984 31.4202 65.7885 33 68.0852 33C69.1288 33 70.2345 32.6755 71.0378 32.0692V29.0983H69.4934V31.2426ZM84.3357 32.8745L82.6975 30.521C83.6474 30.1128 84.2003 29.3075 84.2003 28.2085C84.2003 26.5663 82.9795 25.5518 81.0279 25.5518H77.8657V32.8745H79.5567V30.8344H81.1113L82.5204 32.8745H84.3357ZM82.4888 28.2085C82.4888 29.0035 81.9666 29.4851 80.9341 29.4851H79.5567V26.9327H80.9341C81.9666 26.9327 82.4888 27.4032 82.4888 28.2085ZM94.336 33C96.6318 33 98.333 31.3997 98.333 29.2127C98.333 27.0266 96.6318 25.4263 94.336 25.4263C92.0299 25.4263 90.3389 27.0368 90.3389 29.2127C90.3389 31.3886 92.0299 33 94.336 33ZM94.336 31.556C93.0317 31.556 92.0504 30.6047 92.0504 29.2127C92.0504 27.8216 93.0317 26.8695 94.336 26.8695C95.6402 26.8695 96.6216 27.8216 96.6216 29.2127C96.6216 30.6047 95.6402 31.556 94.336 31.556ZM108.114 33C110.19 33 111.422 31.8071 111.422 29.6525V25.5518H109.752V29.5893C109.752 30.9813 109.158 31.556 108.125 31.556C107.102 31.556 106.497 30.9813 106.497 29.5893V25.5518H104.806V29.6525C104.806 31.8071 106.037 33 108.114 33ZM121.516 25.5518H118.354V32.8745H120.045V30.8557H121.516C123.468 30.8557 124.689 29.8404 124.689 28.2085C124.689 26.5663 123.468 25.5518 121.516 25.5518ZM121.422 29.4749H120.045V26.9327H121.422C122.456 26.9327 122.977 27.4032 122.977 28.2085C122.977 29.0035 122.456 29.4749 121.422 29.4749Z" fill="#00A759"/>
<path fill-rule="evenodd" clip-rule="evenodd" d="M2.28876 2.32997C4.19688 -0.0294567 7.61305 -0.72507 10.3188 0.837088L16.9925 4.69022L14.6216 6.0712C12.998 6.83895 10.9468 7.0562 9.71382 6.60531L2.28876 2.32997ZM19.732 5.36534L27.5747 0.837088C30.2809 -0.72507 33.6975 -0.0290468 35.6052 2.32997L18.947 11.9222L12.318 8.10516C13.4448 8.5208 14.9438 7.9744 16.5876 7.19639L19.732 5.36534Z" fill="#00A759"/>
<path fill-rule="evenodd" clip-rule="evenodd" d="M12.6618 26.7924V18.9697L15.0278 20.3359C16.6597 21.4742 17.966 23.4041 17.966 24.7342V33C14.9709 32.5253 12.6618 29.9155 12.6618 26.7924ZM11.8765 16.2508L4.03411 11.7229C1.32995 10.1616 0.224021 6.85817 1.30946 4.02734L1.33856 4.03718L16.1153 12.546C17.359 13.3519 17.9484 14.6812 17.966 16.4684V21.6636C17.966 20.3335 16.6597 19.2087 15.0278 18.0704L11.8765 16.2508Z" fill="#FFCC29"/>
<path fill-rule="evenodd" clip-rule="evenodd" d="M25.2345 26.7924V13.9401C25.3956 12.0603 25.6928 10.4408 26.7049 9.71071L21.7815 12.546C20.5378 13.3519 19.9479 14.6812 19.9307 16.4684V33C22.9259 32.5253 25.2345 29.9155 25.2345 26.7924ZM27.1967 15.5716L33.8627 11.7229C36.5668 10.1616 37.6728 6.85817 36.5873 4.02734L36.5578 4.03718L29.3299 8.19938C28.265 8.98108 27.3562 10.9441 27.1963 12.8076L27.1967 15.5716Z" fill="#F26B37"/>
</svg>
